# xmcd
#
# Track frame offsets:
#	182
#	17805
#	34350
#	53572
#	85362
#	102147
#	117852
#	131525
#	149972
#	171165
#	197990
#	218355
#	233602
#
# Disc length: 3231 seconds
#
# Revision: 1
# Processed by: cddbd v1.5PL3 Copyright (c) Steve Scherf et al.
# Submitted via: EasyCDDAExtractor 7.0.4.1
#
DISCID=b50c9d0d
DTITLE=Such A Noise - Raising the Roof
DYEAR=1900
DGENRE=
TTITLE0=Mainstreet Lady
TTITLE1=Come On (Let The Good Times Roll)
TTITLE2=Mad Dog
TTITLE3=Don't You Cry
TTITLE4=Season Ticket For The Blues
TTITLE5=Big Fat Louis
TTITLE6=Call Your Sister
TTITLE7=When Love Is Calling You
TTITLE8=Don't Give It Up (Leila)
TTITLE9=Voodoo Chile
TTITLE10=I Could Have Been Your Lover
TTITLE11=Such A Noise
TTITLE12=Such A Free Noise
EXTD=
EXTT0=
EXTT1=
EXTT2=
EXTT3=
EXTT4=
EXTT5=
EXTT6=
EXTT7=
EXTT8=
EXTT9=
EXTT10=
EXTT11=
EXTT12=
PLAYORDER=
